<svg height="100" viewBox="0 0 100 100" width="100" xmlns="http://www.w3.org/2000/svg"><g fill-rule="evenodd"><g fill="#fff"><path d="m50.0004412 0c-27.6133165 0-50.0004412 22.3848726-50.0004412 49.9995588 0 27.6138038 22.3871247 50.0004412 50.0004412 50.0004412s49.9995588-22.3866374 49.9995588-50.0004412c0-27.6146862-22.3871247-49.9995588-49.9995588-49.9995588z" fill-rule="evenodd" height="100%" width="100%"/><path d="m50.000441.5c-27.33782 0-49.500441 22.161661-49.500441 49.499559 0 27.337492 22.163098 49.500441 49.500441 49.500441 27.337172 0 49.499559-22.162778 49.499559-49.500441 0-27.337763-22.162486-49.499559-49.499559-49.499559z"/></g><path clip-rule="evenodd" d="m20.330582 9.9439938-.42522.4253742 17.414324 17.414324c-2.464428 3.843894-3.879572 8.566216-3.879572 13.936442 0 14.930056 10.963133 24.843596 24.843751 24.843596 5.187372 0 9.969211-1.383309 13.920448-3.895412l17.501829 17.501829c-9.066946 11.976586-23.48028 19.517201-39.702143 19.517201-27.43936 0-49.691347-21.568252-49.691347-49.687348 0-16.722746 7.8704865-31.128237 20.01793-40.0560062zm8.283864-4.9210145c6.475336-3.0289792 13.729754-4.7103273 21.385554-4.7103273 27.43936 0 49.687348 21.568252 49.687348 49.687348 0 7.735308-1.681348 14.973732-4.694487 21.405238l-15.748816-15.748816c2.464429-3.843894 3.879572-8.566217 3.879572-13.936288 0-14.930211-10.963133-24.843751-24.843751-24.843751-5.187373 0-9.969211 1.38331-13.920448 3.895413zm29.66542 51.6032197c-8.331539 0-14.90622-5.946463-14.90622-14.906065 0-8.959757 6.574681-14.90622 14.90622-14.90622 8.331538 0 14.90622 5.946463 14.90622 14.90622 0 8.959602-6.574682 14.906065-14.90622 14.906065z" fill="#192d46" stroke-width=".03975"/></g></svg>