<?xml version="1.0" encoding="UTF-8" standalone="no"?>
<svg
   xmlns:dc="http://purl.org/dc/elements/1.1/"
   xmlns:cc="http://creativecommons.org/ns#"
   xmlns:rdf="http://www.w3.org/1999/02/22-rdf-syntax-ns#"
   xmlns:svg="http://www.w3.org/2000/svg"
   xmlns="http://www.w3.org/2000/svg"
   xmlns:sodipodi="http://sodipodi.sourceforge.net/DTD/sodipodi-0.dtd"
   xmlns:inkscape="http://www.inkscape.org/namespaces/inkscape"
   height="100"
   viewBox="0 0 100 100"
   width="100"
   version="1.1"
   id="svg12"
   sodipodi:docname="icon.svg"
   inkscape:version="0.92.4 (5da689c313, 2019-01-14)">
  <metadata
     id="metadata18">
    <rdf:RDF>
      <cc:Work
         rdf:about="">
        <dc:format>image/svg+xml</dc:format>
        <dc:type
           rdf:resource="http://purl.org/dc/dcmitype/StillImage" />
        <dc:title></dc:title>
      </cc:Work>
    </rdf:RDF>
  </metadata>
  <defs
     id="defs16" />
  <sodipodi:namedview
     pagecolor="#ffffff"
     bordercolor="#666666"
     borderopacity="1"
     objecttolerance="10"
     gridtolerance="10"
     guidetolerance="10"
     inkscape:pageopacity="0"
     inkscape:pageshadow="2"
     inkscape:window-width="899"
     inkscape:window-height="808"
     id="namedview14"
     showgrid="false"
     inkscape:zoom="2.36"
     inkscape:cx="50"
     inkscape:cy="50"
     inkscape:window-x="0"
     inkscape:window-y="0"
     inkscape:window-maximized="0"
     inkscape:current-layer="svg12" />
  <g
     fill-rule="evenodd"
     id="g10">
    <g
       fill="#fff"
       id="g6">
      <path
         d="m50.0004412 0c-27.6133165 0-50.0004412 22.3848726-50.0004412 49.9995588 0 27.6138038 22.3871247 50.0004412 50.0004412 50.0004412s49.9995588-22.3866374 49.9995588-50.0004412c0-27.6146862-22.3871247-49.9995588-49.9995588-49.9995588z"
         fill-rule="evenodd"
         height="100%"
         width="100%"
         id="path2" />
      <path
         d="m50.000441.5c-27.33782 0-49.500441 22.161661-49.500441 49.499559 0 27.337492 22.163098 49.500441 49.500441 49.500441 27.337172 0 49.499559-22.162778 49.499559-49.500441 0-27.337763-22.162486-49.499559-49.499559-49.499559z"
         id="path4" />
    </g>
    <path
       clip-rule="evenodd"
       d="m20.330582 9.9439938-.42522.4253742 17.414324 17.414324c-2.464428 3.843894-3.879572 8.566216-3.879572 13.936442 0 14.930056 10.963133 24.843596 24.843751 24.843596 5.187372 0 9.969211-1.383309 13.920448-3.895412l17.501829 17.501829c-9.066946 11.976586-23.48028 19.517201-39.702143 19.517201-27.43936 0-49.691347-21.568252-49.691347-49.687348 0-16.722746 7.8704865-31.128237 20.01793-40.0560062zm8.283864-4.9210145c6.475336-3.0289792 13.729754-4.7103273 21.385554-4.7103273 27.43936 0 49.687348 21.568252 49.687348 49.687348 0 7.735308-1.681348 14.973732-4.694487 21.405238l-15.748816-15.748816c2.464429-3.843894 3.879572-8.566217 3.879572-13.936288 0-14.930211-10.963133-24.843751-24.843751-24.843751-5.187373 0-9.969211 1.38331-13.920448 3.895413zm29.66542 51.6032197c-8.331539 0-14.90622-5.946463-14.90622-14.906065 0-8.959757 6.574681-14.90622 14.90622-14.90622 8.331538 0 14.90622 5.946463 14.90622 14.90622 0 8.959602-6.574682 14.906065-14.90622 14.906065z"
       fill="#192d46"
       stroke-width=".03975"
       id="path8" />
  </g>
  <g
     id="g3827"
     transform="translate(46.16539,29.215738)">
    <g
       id="g3756">
	<path
   id="path3724"
   d="m 13.782,13.917 c 0.605,0.297 1.217,0.642 1.841,1.037 0.622,0.393 1.207,0.839 1.749,1.333 0.546,0.497 1.036,1.026 1.473,1.588 0.434,0.562 0.783,1.15 1.049,1.763 l -0.828,0.629 -0.626,0.492 -0.681,0.55 -0.966,0.768 c -0.77,-1.375 -1.63,-2.452 -2.58,-3.235 -0.95,-0.781 -2.062,-1.32 -3.34,-1.617 -0.366,0.445 -0.795,0.906 -1.289,1.38 C 9.087,19.08 8.519,19.53 7.877,19.955 7.233,20.38 6.523,20.776 5.747,21.143 4.971,21.508 4.117,21.81 3.186,22.047 2.959,21.628 2.775,21.274 2.641,20.988 L 2.24,20.177 C 2.119,19.921 2.007,19.668 1.904,19.418 1.799,19.167 1.678,18.883 1.54,18.566 2.292,18.401 2.937,18.21 3.47,17.989 c 0.536,-0.219 1.013,-0.492 1.44,-0.82 0.423,-0.327 0.809,-0.727 1.157,-1.197 0.345,-0.47 0.704,-1.052 1.068,-1.749 0,-0.131 -0.003,-0.266 -0.016,-0.398 0,-0.675 0.046,-1.351 0.135,-2.024 C 7.352,10.992 7.524,10.242 7.767,9.553 8.01,8.862 8.33,8.239 8.723,7.681 9.118,7.125 9.594,6.688 10.146,6.371 c 0.287,0.081 0.605,0.208 0.95,0.383 l 1.055,0.506 0.934,0.445 c 0.286,0.131 0.5,0.226 0.637,0.276 -0.038,0.164 0.018,0.329 0.172,0.498 0.155,0.17 0.463,0.305 0.927,0.406 0.177,0.041 0.41,0.081 0.697,0.115 0.286,0.036 0.602,0.026 0.943,-0.031 0.342,-0.054 0.71,-0.159 1.105,-0.313 0.398,-0.153 0.796,-0.409 1.204,-0.767 0.246,0.358 0.474,0.706 0.68,1.042 l 0.566,0.937 0.52,0.873 c -0.602,0.542 -1.262,0.993 -1.976,1.351 -0.602,0.317 -1.309,0.558 -2.121,0.72 -0.334,0.072 -0.687,0.108 -1.051,0.108 -0.497,0 -1.01,-0.065 -1.546,-0.198 0,0.235 -0.003,0.418 -0.012,0.55 z M 14.214,5.741 C 13.747,5.741 13.313,5.668 12.908,5.524 12.501,5.379 12.149,5.175 11.846,4.913 11.544,4.651 11.304,4.345 11.119,3.997 10.936,3.649 10.848,3.28 10.848,2.891 10.848,2.501 10.936,2.13 11.12,1.776 11.305,1.424 11.544,1.112 11.847,0.841 12.149,0.568 12.501,0.361 12.909,0.217 13.312,0.072 13.747,0 14.214,0 c 0.463,0 0.904,0.072 1.321,0.217 0.415,0.144 0.78,0.351 1.098,0.624 0.316,0.271 0.563,0.583 0.74,0.935 0.182,0.354 0.266,0.725 0.266,1.115 0,0.389 -0.084,0.758 -0.266,1.106 -0.177,0.348 -0.424,0.654 -0.74,0.916 -0.318,0.262 -0.684,0.466 -1.098,0.611 -0.418,0.144 -0.859,0.217 -1.321,0.217 z"
   inkscape:connector-curvature="0" />

	<g
   id="g3726">
	</g>

	<g
   id="g3728">
	</g>

	<g
   id="g3730">
	</g>

	<g
   id="g3732">
	</g>

	<g
   id="g3734">
	</g>

	<g
   id="g3736">
	</g>

	<g
   id="g3738">
	</g>

	<g
   id="g3740">
	</g>

	<g
   id="g3742">
	</g>

	<g
   id="g3744">
	</g>

	<g
   id="g3746">
	</g>

	<g
   id="g3748">
	</g>

	<g
   id="g3750">
	</g>

	<g
   id="g3752">
	</g>

	<g
   id="g3754">
	</g>

</g>
    <g
       id="g3758">
</g>
    <g
       id="g3760">
</g>
    <g
       id="g3762">
</g>
    <g
       id="g3764">
</g>
    <g
       id="g3766">
</g>
    <g
       id="g3768">
</g>
    <g
       id="g3770">
</g>
    <g
       id="g3772">
</g>
    <g
       id="g3774">
</g>
    <g
       id="g3776">
</g>
    <g
       id="g3778">
</g>
    <g
       id="g3780">
</g>
    <g
       id="g3782">
</g>
    <g
       id="g3784">
</g>
    <g
       id="g3786">
</g>
  </g>
</svg>
